# xmcd
#
# Track frame offsets:
# 150
# 20641
# 36340
# 51960
# 67657
# 88997
# 110879
# 131710
# 142188
# 156717
# 166317
# 182517
# 189939
# 206655
# 226744
# 243321
# 256578
# 275347
# 298849
# 320405
#
# Disc length: 4414 seconds
#
# Revision: 0
# Processed by: cddbd v1.5.2PL0 Copyright (c) Steve Scherf et al.
# Submitted via: Audion 3.0.2 (http://www.panic.com/audion/)
#
DISCID=2c113c14
DTITLE=Max Brooks - The Zombie Survival Guide [CD6]
DYEAR=1900
DGENRE=
TTITLE0=Disc 6 - Track 1
TTITLE1=Disc 6 - Track 2
TTITLE2=Disc 6 - Track 3
TTITLE3=Disc 6 - Track 4
TTITLE4=Disc 6 - Track 5
TTITLE5=Disc 6 - Track 6
TTITLE6=Disc 6 - Track 7
TTITLE7=Disc 6 - Track 8
TTITLE8=Disc 6 - Track 9
TTITLE9=Disc 6 - Track 10
TTITLE10=Disc 6 - Track 11
TTITLE11=Disc 6 - Track 12
TTITLE12=Disc 6 - Track 13
TTITLE13=Disc 6 - Track 14
TTITLE14=Disc 6 - Track 15
TTITLE15=Disc 6 - Track 16
TTITLE16=Disc 6 - Track 17
TTITLE17=Disc 6 - Track 18
TTITLE18=Disc 6 - Track 19
TTITLE19=Disc 6 - Track 20
EXTD=
EXTT0=
EXTT1=
EXTT2=
EXTT3=
EXTT4=
EXTT5=
EXTT6=
EXTT7=
EXTT8=
EXTT9=
EXTT10=
EXTT11=
EXTT12=
EXTT13=
EXTT14=
EXTT15=
EXTT16=
EXTT17=
EXTT18=
EXTT19=
PLAYORDER=
